<?xml version="1.0" encoding="UTF-8" standalone="no"?>
<!-- Created with Inkscape (http://www.inkscape.org/) -->

<svg
   xmlns:dc="http://purl.org/dc/elements/1.1/"
   xmlns:cc="http://creativecommons.org/ns#"
   xmlns:rdf="http://www.w3.org/1999/02/22-rdf-syntax-ns#"
   xmlns:svg="http://www.w3.org/2000/svg"
   xmlns="http://www.w3.org/2000/svg"
   xmlns:sodipodi="http://sodipodi.sourceforge.net/DTD/sodipodi-0.dtd"
   xmlns:inkscape="http://www.inkscape.org/namespaces/inkscape"
   version="1.1"
   id="svg10"
   width="651.20001"
   height="183.03999"
   viewBox="0 0 651.20001 183.03999"
   sodipodi:docname="people.svg"
   inkscape:version="0.92.3 (2405546, 2018-03-11)">
  <metadata
     id="metadata16">
    <rdf:RDF>
      <cc:Work
         rdf:about="">
        <dc:format>image/svg+xml</dc:format>
        <dc:type
           rdf:resource="http://purl.org/dc/dcmitype/StillImage" />
        <dc:title></dc:title>
      </cc:Work>
    </rdf:RDF>
  </metadata>
  <defs
     id="defs14" />
  <sodipodi:namedview
     pagecolor="#ffffff"
     bordercolor="#666666"
     borderopacity="1"
     objecttolerance="10"
     gridtolerance="10"
     guidetolerance="10"
     inkscape:pageopacity="0"
     inkscape:pageshadow="2"
     inkscape:window-width="1366"
     inkscape:window-height="715"
     id="namedview12"
     showgrid="false"
     inkscape:zoom="1.3149667"
     inkscape:cx="225.53058"
     inkscape:cy="104.56657"
     inkscape:window-x="-8"
     inkscape:window-y="-8"
     inkscape:window-maximized="1"
     inkscape:current-layer="svg10" />
  <path
     style="fill:#000000;stroke-width:0.31999999"
     d="m 248.49976,126.10937 10.23625,-10.24 h 16.40188 16.40187 v 10.24 10.24 h -26.63812 -26.63813 z"
     id="path3847"
     inkscape:connector-curvature="0" />
  <path
     style="fill:#000000;stroke-width:0.31999999"
     d="M 41.298828,49.285156 V 92.658203 136.0293 h 8.960938 8.960937 v -16.95899 -16.96094 h 21.292969 c 18.07369,0 21.659058,-0.075 23.716798,-0.49999 6.07775,-1.2554 9.44441,-4.19959 11.09375,-9.701177 0.57049,-1.902951 0.64912,-3.324068 0.77539,-13.923828 0.14966,-12.563948 -0.0776,-16.260703 -1.20313,-19.554687 -1.3779,-4.032502 -4.26614,-6.627149 -9.04492,-8.126954 l -2.63086,-0.826172 -30.960934,-0.0957 z m 17.921875,14.712891 17.359375,0.09766 c 18.561095,0.103245 18.391803,0.08902 20.125,1.742188 1.403469,1.338669 1.610562,2.805616 1.498047,10.683593 -0.116845,8.181213 -0.300959,8.874594 -2.671875,10.06836 -1.217798,0.613167 -2.005582,0.643839 -18.791016,0.730468 l -17.519531,0.08984 V 75.705078 Z"
     id="path3845"
     inkscape:connector-curvature="0" />
  <path
     style="fill:#000000;stroke-width:0.31999999"
     d="m 144.57976,135.79208 -2.16,-0.11195 V 92.494755 49.309378 h 33.12 33.12 v 7.36 7.359999 h -24 -24 v 9.76 9.759999 h 14.72 14.72 v 7.36 7.36 h -14.72 -14.72 v 10.879994 10.88 h 24.32 24.32 v 8 8 l -31.28,-0.0627 c -17.204,-0.0345 -32.252,-0.11305 -33.44,-0.17462 z"
     id="path3841"
     inkscape:connector-curvature="0" />
  <path
     style="fill:#000000;stroke-width:0.31999999"
     d="M 304.33976,109.5475 V 82.909376 h 10.24 10.24 v 16.401875 16.401869 l -10.24,10.23625 -10.24,10.23625 z"
     id="path3839"
     inkscape:connector-curvature="0" />
  <path
     style="fill:#000000;stroke-width:0.31999999"
     d="M 356.82031,49.285156 V 92.658203 136.0293 h 9.11914 9.1211 v -16.94727 -16.94726 l 22.31836,-0.0938 22.32031,-0.0918 2.51758,-0.89063 c 4.04394,-1.430165 6.11403,-3.133357 7.76562,-6.392573 1.55155,-3.061814 1.70494,-4.776272 1.71094,-18.986328 0.005,-12.11432 -0.0448,-13.345704 -0.63477,-15.652344 -1.0866,-4.248604 -2.97659,-6.75016 -6.4082,-8.482422 -4.1992,-2.119754 -2.72597,-2.033944 -36.87109,-2.152344 z m 18.24024,14.712891 17.19922,0.0957 17.19921,0.0957 1.60157,0.800781 c 2.71564,1.357828 2.8789,1.970252 2.8789,10.730469 0,8.607491 -0.22716,9.574957 -2.53906,10.8125 -1.2839,0.687251 -1.52662,0.69785 -18.82031,0.787109 l -17.51953,0.08984 V 75.705068 Z"
     id="path3837"
     inkscape:connector-curvature="0" />
  <path
     style="fill:#000000;stroke-width:0.31999999"
     d="m 460.09977,135.79416 -1.52,-0.11985 V 92.491843 49.309378 h 9.28 9.28 v 35.359998 35.359994 h 19.84 19.84 v 8 8 l -27.6,-0.0577 c -15.18,-0.0317 -28.284,-0.11161 -29.12,-0.17753 z"
     id="path3833"
     inkscape:connector-curvature="0" />
  <path
     style="fill:#000000;stroke-width:0.31999999"
     d="m 543.45977,135.79116 -2.96,-0.10559 V 92.497376 49.309388 h 33.28 33.28 v 7.359999 7.36 h -24 -24 v 9.76 9.759999 h 14.56 14.56 v 7.36 7.359999 h -14.56 -14.56 v 10.879995 10.88 h 24.32 24.32 v 8 8 l -30.64,-0.0664 c -16.852,-0.0365 -31.972,-0.11393 -33.6,-0.17201 z"
     id="path3831"
     inkscape:connector-curvature="0" />
  <path
     style="fill:#000000;stroke-width:0.31999999"
     d="M 238.09976,86.667501 V 70.265627 l 10.24,-10.236249 10.24,-10.236249 v 26.638123 26.638118 h -10.24 -10.24 z"
     id="path3829"
     inkscape:connector-curvature="0" />
  <path
     style="fill:#000000;stroke-width:0.31999999"
     d="m 271.37976,59.869378 v -10.24 h 26.58344 26.58345 l -10.34345,10.232262 -10.34344,10.232259 -16.24,0.0077 -16.24,0.0077 z"
     id="path3827"
     inkscape:connector-curvature="0" />
  <path
     style="fill:#000000;stroke-width:0.31999999"
     d="m 626.89977,42.269379 v -4.8 h -1.76 c -1.664,0 -1.76,-0.04363 -1.76,-0.8 v -0.8 h 4.48 4.48 v 0.8 c 0,0.756365 -0.096,0.8 -1.76,0.8 h -1.76 v 4.8 4.799999 h -0.96 -0.96 z"
     id="path3825"
     inkscape:connector-curvature="0" />
  <path
     style="fill:#000000;stroke-width:0.31999999"
     d="m 634.25977,41.469379 v -5.6 h 1.54979 1.54979 l 0.668,2.48 c 0.36736,1.364 0.83245,3.110316 1.03348,3.880704 0.20105,0.77039 0.47776,1.27439 0.61491,1.12 0.13712,-0.154388 0.66307,-1.900704 1.16877,-3.880704 l 0.91939,-3.6 h 1.68793 1.68794 v 5.6 5.599999 h -0.96 -0.96 v -4.543999 c 0,-2.58184 -0.11968,-4.41273 -0.27715,-4.24 -0.15245,0.1672 -0.74519,2.212 -1.31722,4.544 l -1.04,4.239999 h -1.01392 -1.01389 l -1.15664,-4.559999 -1.15667,-4.56 -0.0322,4.56 -0.0323,4.559999 h -0.96 -0.96 z"
     id="path3821"
     inkscape:connector-curvature="0" />
</svg>
